<svg width="15" height="18" viewBox="0 0 15 18" fill="none" xmlns="http://www.w3.org/2000/svg">
<path d="M13.3074 5.0924C12.9551 4.72262 12.5368 4.42929 12.0763 4.22916C11.6159 4.02903 11.1224 3.92603 10.624 3.92603C10.1256 3.92603 9.63215 4.02903 9.17172 4.22916C8.7113 4.42929 8.29298 4.72262 7.94065 5.0924L7.20945 5.85945L6.47824 5.0924C5.76657 4.34583 4.80133 3.92641 3.79487 3.92641C2.78841 3.92641 1.82317 4.34583 1.11149 5.0924C0.399815 5.83897 7.49872e-09 6.85153 0 7.90734C-7.49872e-09 8.96315 0.399815 9.97571 1.11149 10.7223L1.84269 11.4893L7.20945 17.1192L12.5762 11.4893L13.3074 10.7223C13.6599 10.3527 13.9395 9.91385 14.1303 9.43085C14.3211 8.94785 14.4193 8.43016 14.4193 7.90734C14.4193 7.38452 14.3211 6.86683 14.1303 6.38383C13.9395 5.90083 13.6599 5.462 13.3074 5.0924Z" fill="#EF613B"/>
</svg>
