<svg width="15" height="16" viewBox="0 0 15 16" fill="none" xmlns="http://www.w3.org/2000/svg">
<path d="M7.5 0.851562C3.35685 0.851562 0 4.20842 0 8.35156C0 12.4947 3.35685 15.8516 7.5 15.8516C11.6431 15.8516 15 12.4947 15 8.35156C15 4.20842 11.6431 0.851562 7.5 0.851562ZM11.1774 10.3203C11.3196 10.4624 11.3196 10.6923 11.1774 10.8344L9.97984 12.029C9.8377 12.1711 9.60786 12.1711 9.46573 12.029L7.5 10.0451L5.53125 12.029C5.38911 12.1711 5.15927 12.1711 5.01714 12.029L3.82258 10.8314C3.68044 10.6893 3.68044 10.4594 3.82258 10.3173L5.80645 8.35156L3.82258 6.38281C3.68044 6.24067 3.68044 6.01084 3.82258 5.8687L5.02016 4.67112C5.1623 4.52898 5.39214 4.52898 5.53427 4.67112L7.5 6.65801L9.46875 4.67414C9.61089 4.53201 9.84073 4.53201 9.98286 4.67414L11.1804 5.87172C11.3226 6.01386 11.3226 6.2437 11.1804 6.38584L9.19355 8.35156L11.1774 10.3203Z" fill="#EF613B"/>
</svg>
