<svg width="29" height="26" viewBox="0 0 29 26" fill="none" xmlns="http://www.w3.org/2000/svg">
<path opacity="0.8" d="M15.2041 21.5714H3.44898M24.2653 12.5102V5C24.2653 2.79086 22.4744 1 20.2653 1H5C2.79086 1 1 2.79086 1 5V19.1224C1 20.475 2.09645 21.5714 3.44898 21.5714V21.5714M3.44898 21.5714L15.2041 9.08163L19.1224 13M23.0408 16.1837V25M27.9388 20.5918H18.1429M8.34694 8.10204C8.34694 9.04881 7.57943 9.81633 6.63265 9.81633C5.68588 9.81633 4.91837 9.04881 4.91837 8.10204C4.91837 7.15527 5.68588 6.38776 6.63265 6.38776C7.57943 6.38776 8.34694 7.15527 8.34694 8.10204Z" stroke="#888F9D" stroke-width="1.5" stroke-linecap="round"/>
</svg>
