<svg width="40" height="40" viewBox="0 0 40 40" fill="none" xmlns="http://www.w3.org/2000/svg">
<circle opacity="0.5" cx="20" cy="20" r="20" fill="black"/>
<path d="M24.5 14.5L23.8292 14.8354L24.0365 15.25H24.5V14.5ZM16.5 14.5V15.25H16.9635L17.1708 14.8354L16.5 14.5ZM23.7764 13.0528L24.4472 12.7174L23.7764 13.0528ZM11.75 16.5V25.5H13.25V16.5H11.75ZM14.5 28.25H26.5V26.75H14.5V28.25ZM29.25 25.5V16.5H27.75V25.5H29.25ZM26.5 13.75H24.5V15.25H26.5V13.75ZM25.1708 14.1646L24.4472 12.7174L23.1056 13.3882L23.8292 14.8354L25.1708 14.1646ZM22.882 11.75H18.118V13.25H22.882V11.75ZM16.5528 12.7174L15.8292 14.1646L17.1708 14.8354L17.8944 13.3882L16.5528 12.7174ZM16.5 13.75H14.5V15.25H16.5V13.75ZM23.75 20.5C23.75 22.2949 22.2949 23.75 20.5 23.75V25.25C23.1234 25.25 25.25 23.1234 25.25 20.5H23.75ZM20.5 23.75C18.7051 23.75 17.25 22.2949 17.25 20.5H15.75C15.75 23.1234 17.8766 25.25 20.5 25.25V23.75ZM17.25 20.5C17.25 18.7051 18.7051 17.25 20.5 17.25V15.75C17.8766 15.75 15.75 17.8766 15.75 20.5H17.25ZM20.5 17.25C22.2949 17.25 23.75 18.7051 23.75 20.5H25.25C25.25 17.8766 23.1234 15.75 20.5 15.75V17.25ZM18.118 11.75C17.4552 11.75 16.8492 12.1245 16.5528 12.7174L17.8944 13.3882C17.9368 13.3035 18.0233 13.25 18.118 13.25V11.75ZM29.25 16.5C29.25 14.9812 28.0188 13.75 26.5 13.75V15.25C27.1904 15.25 27.75 15.8096 27.75 16.5H29.25ZM26.5 28.25C28.0188 28.25 29.25 27.0188 29.25 25.5H27.75C27.75 26.1904 27.1904 26.75 26.5 26.75V28.25ZM11.75 25.5C11.75 27.0188 12.9812 28.25 14.5 28.25V26.75C13.8096 26.75 13.25 26.1904 13.25 25.5H11.75ZM24.4472 12.7174C24.1508 12.1245 23.5448 11.75 22.882 11.75V13.25C22.9767 13.25 23.0632 13.3035 23.1056 13.3882L24.4472 12.7174ZM13.25 16.5C13.25 15.8096 13.8096 15.25 14.5 15.25V13.75C12.9812 13.75 11.75 14.9812 11.75 16.5H13.25Z" fill="white"/>
</svg>
