<svg width="113" height="100" viewBox="0 0 113 100" fill="none" xmlns="http://www.w3.org/2000/svg">
<path d="M98.1813 34.4799C98.1813 34.4799 94.1753 37.0769 93.5928 42.1288L94.2844 42.2344C94.2844 42.2344 95.8339 37.0696 98.1722 35.1589C100.51 33.2474 98.1813 34.4799 98.1813 34.4799Z" fill="#82B378"/>
<path d="M78.9823 25.4593C78.9823 25.4593 74.9664 31.5681 77.2556 39.0049L78.2889 38.7263C78.2889 38.7263 77.2865 30.5358 79.3876 26.416C81.4888 22.2971 78.9823 25.4593 78.9823 25.4593Z" fill="#82B378"/>
<path d="M34.0332 29.3036C34.0332 29.3036 37.6947 36.4855 34.2858 44.3574L33.1871 43.9269C33.1871 43.9269 35.2773 35.0728 33.4734 30.303C31.6685 25.5342 34.0332 29.3036 34.0332 29.3036Z" fill="#82B378"/>
<path d="M0 32.381L51.8556 1.28663C54.7147 -0.428299 58.2844 -0.428299 61.1444 1.28663L113 32.381V83.0605L0 77.386V32.381Z" fill="#ED7D2B"/>
<path d="M103.273 90.8994H9.72656V9.9265H103.273V90.8994Z" fill="white"/>
<path d="M12.582 13.4584C12.582 12.9257 13.0128 12.495 13.5435 12.495C14.0752 12.495 14.5059 12.9257 14.5059 13.4584C14.5059 13.9902 14.0752 14.4219 13.5435 14.4219C13.0128 14.4219 12.582 13.9902 12.582 13.4584Z" fill="#EFCBAB"/>
<path d="M98.4365 13.4584C98.4365 12.9257 98.8673 12.495 99.398 12.495C99.9297 12.495 100.36 12.9257 100.36 13.4584C100.36 13.9902 99.9297 14.4219 99.398 14.4219C98.8673 14.4219 98.4365 13.9902 98.4365 13.4584Z" fill="#EFCBAB"/>
<path d="M99.3979 13.5635H13.5435V13.354H99.3979V13.5635Z" fill="#EFCBAB"/>
<path d="M13.439 99.0684V13.0754H13.6479V99.0684H13.439Z" fill="#EFCBAB"/>
<path d="M99.3271 99.0684V13.0754H99.5361V99.0684H99.3271Z" fill="#EFCBAB"/>
<path d="M113 32.2413V100H0V32.2413L56.4995 66.1211L113 32.2413Z" fill="#FF9843"/>
<path d="M0 100L51.7566 62.8342C54.592 60.7979 58.4071 60.7979 61.2425 62.8342L113 100H0Z" fill="#ED7D2B"/>
<path d="M75.8325 35.9873H38.4421C38.0832 35.9873 37.7905 35.6932 37.7905 35.3344C37.7905 34.9756 38.0832 34.6815 38.4421 34.6815H75.8325C76.1906 34.6815 76.4841 34.9756 76.4841 35.3344C76.4841 35.6932 76.1906 35.9873 75.8325 35.9873Z" fill="#EFCBAB"/>
<path d="M42.196 39.3955H31.6531C31.295 39.3955 31.0015 39.1014 31.0015 38.7426C31.0015 38.3838 31.295 38.0897 31.6531 38.0897H42.196C42.554 38.0897 42.8476 38.3838 42.8476 38.7426C42.8476 39.1014 42.554 39.3955 42.196 39.3955Z" fill="#EFCBAB"/>
<path d="M58.0963 39.3955H45.3587C45.0006 39.3955 44.708 39.1014 44.708 38.7426C44.708 38.3838 45.0006 38.0897 45.3587 38.0897H58.0963C58.4544 38.0897 58.7479 38.3838 58.7479 38.7426C58.7479 39.1014 58.4544 39.3955 58.0963 39.3955Z" fill="#EFCBAB"/>
<path d="M82.6199 39.3955H60.6008C60.2428 39.3955 59.9492 39.1014 59.9492 38.7426C59.9492 38.3838 60.2428 38.0897 60.6008 38.0897H82.6199C82.978 38.0897 83.2715 38.3838 83.2715 38.7426C83.2715 39.1014 82.978 39.3955 82.6199 39.3955Z" fill="#EFCBAB"/>
<path d="M58.1801 43.3574H37.6995C37.3415 43.3574 37.0488 43.0642 37.0488 42.7045C37.0488 42.3457 37.3415 42.0516 37.6995 42.0516H58.1801C58.5381 42.0516 58.8316 42.3457 58.8316 42.7045C58.8316 43.0642 58.5381 43.3574 58.1801 43.3574Z" fill="#EFCBAB"/>
<path d="M76.5737 43.3574H60.4427C60.0846 43.3574 59.792 43.0642 59.792 42.7045C59.792 42.3457 60.0846 42.0516 60.4427 42.0516H76.5737C76.9318 42.0516 77.2253 42.3457 77.2253 42.7045C77.2253 43.0642 76.9318 43.3574 76.5737 43.3574Z" fill="#EFCBAB"/>
</svg>
