<svg width="56" height="56" viewBox="0 0 56 56" fill="none" xmlns="http://www.w3.org/2000/svg">
<circle opacity="0.4" cx="28" cy="28" r="28" fill="#EF613B"/>
<path d="M35.3125 21H20.6875C19.7555 21 19 21.7835 19 22.75V33.25C19 34.2165 19.7555 35 20.6875 35H35.3125C36.2445 35 37 34.2165 37 33.25V22.75C37 21.7835 36.2445 21 35.3125 21ZM35.875 33.25C35.875 33.5716 35.6226 33.8333 35.3125 33.8333H20.6875C20.3774 33.8333 20.125 33.5716 20.125 33.25V22.75C20.125 22.4284 20.3774 22.1667 20.6875 22.1667H35.3125C35.6226 22.1667 35.875 22.4284 35.875 22.75V33.25ZM22.9375 27.125C24.0248 27.125 24.9062 26.2109 24.9062 25.0833C24.9062 23.9557 24.0248 23.0417 22.9375 23.0417C21.8502 23.0417 20.9688 23.9557 20.9688 25.0833C20.9688 26.2109 21.8502 27.125 22.9375 27.125ZM22.9375 24.2083C23.4028 24.2083 23.7812 24.6008 23.7812 25.0833C23.7812 25.5658 23.4028 25.9583 22.9375 25.9583C22.4722 25.9583 22.0938 25.5658 22.0938 25.0833C22.0938 24.6008 22.4722 24.2083 22.9375 24.2083ZM30.2159 25.0479L26.875 28.5126L25.7841 27.3813C25.4546 27.0396 24.9204 27.0396 24.5909 27.3813L21.4971 30.5896C21.4188 30.6709 21.3566 30.7673 21.3142 30.8735C21.2718 30.9796 21.25 31.0934 21.25 31.2083V32.2292C21.25 32.4708 21.4389 32.6667 21.6719 32.6667H34.3281C34.5611 32.6667 34.75 32.4708 34.75 32.2292V28.875C34.75 28.6429 34.6611 28.4204 34.5029 28.2563L31.4091 25.0479C31.0796 24.7062 30.5454 24.7062 30.2159 25.0479ZM33.625 31.5H22.375V31.3292L25.1875 28.4125L26.875 30.1625L30.8125 26.0792L33.625 28.9958V31.5Z" fill="#EF613B"/>
</svg>
