<svg width="56" height="56" viewBox="0 0 56 56" fill="none" xmlns="http://www.w3.org/2000/svg">
<circle opacity="0.4" cx="28" cy="28" r="28" fill="#EF613B"/>
<path d="M29.2345 31.7926L27.0689 33.958C25.6804 35.347 23.4312 35.3477 22.042 33.958C20.653 32.5695 20.6523 30.3203 22.042 28.9311L24.2074 26.7655C24.239 26.7339 24.2712 26.7029 24.3039 26.6725C24.5104 26.4809 24.8452 26.6177 24.8565 26.899C24.8618 27.0305 24.8729 27.1617 24.8898 27.2923C24.9029 27.394 24.8694 27.496 24.7969 27.5684C24.3462 28.0187 22.7422 29.6227 22.7379 29.627C21.7333 30.6321 21.7335 32.2571 22.7379 33.262C23.743 34.2666 25.368 34.2664 26.373 33.262L28.5386 31.0964L28.5484 31.0866C29.541 30.0838 29.5366 28.4597 28.5383 27.4614C28.3137 27.2368 28.0577 27.0627 27.784 26.9389C27.6592 26.8824 27.581 26.7566 27.589 26.6198C27.5972 26.478 27.6232 26.3378 27.6662 26.2025C27.7237 26.022 27.9268 25.9302 28.1015 26.0035C28.5137 26.1764 28.8996 26.4306 29.2345 26.7655C30.6205 28.1515 30.6202 30.4068 29.2345 31.7926ZM26.7655 29.2345C27.1004 29.5694 27.4863 29.8236 27.8985 29.9965C28.0731 30.0698 28.2762 29.9779 28.3337 29.7975C28.3768 29.6622 28.4028 29.522 28.411 29.3802C28.419 29.2434 28.3408 29.1176 28.2159 29.0611C27.9423 28.9373 27.6863 28.7633 27.4617 28.5386C26.4634 27.5403 26.459 25.9162 27.4516 24.9134L27.4614 24.9036L29.627 22.738C30.6319 21.7336 32.257 21.7334 33.2621 22.738C34.2664 23.7429 34.2666 25.3679 33.2621 26.373C33.2578 26.3773 31.6538 27.9813 31.2031 28.4316C31.1306 28.5041 31.0971 28.606 31.1102 28.7077C31.1271 28.8382 31.1382 28.9694 31.1435 29.101C31.1548 29.3824 31.4896 29.5191 31.696 29.3275C31.7288 29.2971 31.761 29.2661 31.7926 29.2345L33.9579 27.0689C35.3477 25.6797 35.347 23.4305 33.9579 22.042C32.5688 20.6523 30.3195 20.653 28.9311 22.042L26.7655 24.2074C25.3797 25.5932 25.3795 27.8485 26.7655 29.2345Z" fill="#EF613B"/>
</svg>
