<svg width="14" height="14" viewBox="0 0 14 14" fill="none" xmlns="http://www.w3.org/2000/svg">
<path d="M7 14C10.8669 14 14 10.8669 14 7C14 3.13306 10.8669 0 7 0C3.13306 0 0 3.13306 0 7C0 10.8669 3.13306 14 7 14ZM0.903226 7C0.903226 3.6496 3.61573 0.903226 7 0.903226C10.3504 0.903226 13.0968 3.61573 13.0968 7C13.0968 10.3504 10.3843 13.0968 7 13.0968C3.6496 13.0968 0.903226 10.3843 0.903226 7ZM10.2657 6.49194L5.29798 3.47177C4.85202 3.22339 4.29032 3.54234 4.29032 4.06452V9.93548C4.29032 10.4548 4.84919 10.7766 5.29798 10.5282L10.2657 7.67742C10.7286 7.42056 10.7286 6.75161 10.2657 6.49194ZM5.19355 9.25242V4.76734C5.19355 4.63468 5.3375 4.55282 5.4504 4.62339L9.24677 6.92944C9.35685 6.99718 9.35403 7.15806 9.24395 7.22016L5.44758 9.39919C5.33468 9.46411 5.19355 9.38226 5.19355 9.25242Z" fill="#4D586F"/>
</svg>
