<svg width="16" height="16" viewBox="0 0 16 16" fill="none" xmlns="http://www.w3.org/2000/svg">
<path d="M14.6667 0H3.11111C2.37472 0 1.77778 0.7675 1.77778 1.71429V2.28571H1.33333C0.596944 2.28571 0 3.05321 0 4V14.2857C0 15.2325 0.596944 16 1.33333 16H12.8889C13.6253 16 14.2222 15.2325 14.2222 14.2857V13.7143H14.6667C15.4031 13.7143 16 12.9468 16 12V1.71429C16 0.7675 15.4031 0 14.6667 0ZM13.3333 14.2857C13.3333 14.6008 13.1339 14.8571 12.8889 14.8571H1.33333C1.08828 14.8571 0.888889 14.6008 0.888889 14.2857V4C0.888889 3.68493 1.08828 3.42857 1.33333 3.42857H1.77778V12C1.77778 12.9468 2.37472 13.7143 3.11111 13.7143H13.3333V14.2857ZM15.1111 12C15.1111 12.3151 14.9117 12.5714 14.6667 12.5714H3.11111C2.86606 12.5714 2.66667 12.3151 2.66667 12V1.71429C2.66667 1.39921 2.86606 1.14286 3.11111 1.14286H14.6667C14.9117 1.14286 15.1111 1.39921 15.1111 1.71429V12Z" fill="white"/>
</svg>
