<svg width="1840" height="269" viewBox="0 0 1840 269" fill="none" xmlns="http://www.w3.org/2000/svg">
<path d="M329.302 189.258C316.1 187.648 301.288 185.716 285.51 184.428C298.712 167.684 304.508 144.178 304.508 113.266C304.508 29.868 267.156 0.887987 152.524 0.887987C38.214 0.887987 0.54 28.902 0.54 115.52C0.54 200.85 37.248 222.746 120.646 227.254C197.604 231.44 249.768 234.338 331.234 244.32L329.302 189.258ZM72.99 60.458C99.716 59.492 124.832 58.848 152.524 58.848C180.538 58.848 205.654 59.492 232.38 60.458V179.92C173.132 175.734 110.664 172.836 72.99 171.548V60.458ZM461.268 182.8C438.468 191.2 409.868 197 396.868 197V123.6H358.668V194.2C358.668 218 371.268 228.2 396.468 228.2C418.268 228.2 442.868 221.4 463.868 214L469.468 225H499.468V123.6H461.268V182.8ZM613.714 105V87.6H565.514V105H613.714ZM644.914 225V197.4H608.114V151H644.914V123.6H534.714V151H571.514V197.4H534.714V225H644.914ZM738.96 228.2C761.96 228.2 779.16 226.8 805.16 223.6L806.56 192.8C776.16 197.4 751.56 199.2 713.76 199.2V149.2C750.16 149.2 774.96 150.8 804.76 155.2L803.36 124.4C779.36 121.6 760.56 120.4 738.96 120.4C689.76 120.4 673.56 133.6 673.56 174.2C673.56 214.8 689.76 228.2 738.96 228.2ZM976.727 124.6V123.6H927.527L878.727 164.6V81H840.527V225H878.727V203.8L896.127 189.8L930.927 225H980.327V224L922.327 168.6L976.727 124.6ZM1157.36 156C1172.16 150.6 1178.36 140.8 1178.36 126C1178.36 100.2 1160.96 89 1122.96 89H1009.76V225H1128.96C1165.76 225 1182.96 213.4 1182.96 187.4C1182.96 170.8 1175.56 160.6 1157.36 156ZM1135.96 142.6H1050.36V121.2H1135.96V142.6ZM1050.36 192.8V170.6H1140.56V192.8H1050.36ZM1279.41 200.2H1278.21L1241.61 123.6H1200.41V124.6L1251.41 225H1269.61L1263.41 240.2C1246.21 240 1226.41 238.2 1210.01 236.2L1211.61 267C1223.61 268.2 1239.21 269 1248.61 269C1282.41 269 1291.01 259.4 1301.21 235.6L1348.81 124.6V123.6H1310.21L1279.41 200.2ZM1433.43 151.6H1508.03V123.6H1433.43V96.8H1395.03V123.6H1357.23V151.6H1395.03V194.4C1395.03 218.2 1407.43 228.2 1438.23 228.2C1457.63 228.2 1493.43 226.2 1509.43 223.8L1510.83 193C1490.03 196 1461.43 199 1433.43 199.2V151.6ZM1679.36 184.2C1679.76 182 1680.36 177.8 1680.36 174.4C1680.36 133.6 1662.16 120.4 1605.36 120.4C1548.36 120.4 1530.16 133.8 1530.16 177C1530.16 215.4 1546.76 228.2 1600.56 228.2C1618.36 228.2 1652.16 226.8 1668.96 225L1670.36 195.6C1637.96 199 1615.36 200.4 1569.56 200.4V184.2H1679.36ZM1605.36 148.6C1617.56 148.6 1629.76 148.8 1642.36 149.2V164.2H1569.56V149.2C1581.96 148.8 1593.96 148.6 1605.36 148.6ZM1777.95 228.2C1824.95 228.2 1839.55 219.4 1839.55 196.2C1839.55 176.2 1826.15 167.4 1798.95 165.4L1742.35 161.2V147.8C1768.35 147.8 1808.35 150 1832.75 152.6L1831.15 122.8C1811.95 121.6 1782.95 120.4 1764.95 120.4C1719.75 120.4 1704.35 129.6 1704.35 152.8C1704.35 172.8 1717.75 181.8 1743.35 183.6L1801.55 187.8V201C1778.35 201 1750.35 200 1705.95 195.4L1707.55 225.4C1735.55 227.6 1757.95 228.2 1777.95 228.2Z" fill="#CDDAD3"/>
</svg>
