<svg id="Layer_1" data-name="Layer 1" xmlns="http://www.w3.org/2000/svg" viewBox="0 0 286.04 81.82"><defs><style>.cls-1{fill:#179f49;}.cls-2{fill:#ed1d24;}.cls-3{fill:#ed2024;}.cls-4{fill:#ee362b;}</style></defs><path class="cls-1" d="M-363.18,482.35a23.43,23.43,0,0,1-7.41,2.71,22.81,22.81,0,0,1-17-3.65,29.52,29.52,0,0,1-11-14.15,37.81,37.81,0,0,1,1-30.57,27.06,27.06,0,0,1,12.36-13.28c8.85-4.45,17.3-3.43,25.11,2.56a29,29,0,0,1,9.48,13.12,38.23,38.23,0,0,1-1,30.33,26.92,26.92,0,0,1-4,6.21c-.65-.61-1.32-1.2-1.94-1.83-1.21-1.25-2.37-2.53-3.58-3.77a.72.72,0,0,1-.1-1.1,25.85,25.85,0,0,0,4.54-15.86,24.84,24.84,0,0,0-6.08-16.35c-3.23-3.64-7.23-5.81-12.18-5.78a15.41,15.41,0,0,0-10.75,4.57,23.07,23.07,0,0,0-6.69,12.67A27.2,27.2,0,0,0-389.66,467a19.18,19.18,0,0,0,5.86,6.7c5.07,3.51,10.4,4,16,1.22.41-.12.54.21.69.44,1.23,1.94,2.43,3.9,3.67,5.82A1.27,1.27,0,0,1-363.18,482.35Z" transform="translate(401.33 -420.66)"/><path class="cls-2" d="M-363.18,482.35c-.95-1.8-2.14-3.45-3.2-5.18-.47-.77-1-1.53-1.46-2.29a34.18,34.18,0,0,0-2.49-5.13c-1.1-2.26-2.6-4.3-3.91-6.49.61-.2.86.32,1.18.6a92.34,92.34,0,0,1,7.58,7.87c3.22,3.6,6.05,7.48,8.92,11.35l1,1.3a13.23,13.23,0,0,0,2.06-3.5c1.45-3,3.12-5.89,4.82-8.76a81.23,81.23,0,0,1,9.63-12.9,76.53,76.53,0,0,1,10-9.44,54.79,54.79,0,0,1,10.65-6.68A53.61,53.61,0,0,1-305.18,439c.72-.13,1.42-.66,2.28-.21-.84.56-1.6,1.13-2.41,1.58-1.82,1-3.54,2.18-5.37,3.17a50.84,50.84,0,0,0-9.6,6.41c-1.13,1-2.35,1.92-3.52,2.88a67.59,67.59,0,0,0-9.36,9.55,56.29,56.29,0,0,0-5.19,7.47c-1.16,2-2.21,4.13-3.27,6.22-3.65,7.19-6.49,14.74-9.82,22.08a5.61,5.61,0,0,1-.67,1.37c-.46-.26-.62-.74-.87-1.13l-9.39-14.84C-362.62,483.12-362.91,482.74-363.18,482.35Z" transform="translate(401.33 -420.66)"/><path class="cls-2" d="M-287.32,490.47c-.09,0-.19,0-.24.08a6.33,6.33,0,0,1-10.73-3.22,11.09,11.09,0,0,1-.29-2.58c0-3.81,0-7.63,0-11.45,0-1.57-.08-1.65-1.65-1.88-1-.15-1-.16-.93-1.14s.26-1.26,1.07-1.27c2.64,0,5.29,0,7.94,0,.77,0,1,.22,1.1,1a7.22,7.22,0,0,1,0,1q0,7.68,0,15.36a5,5,0,0,0,.26,1.92,1.54,1.54,0,0,0,2.71.41,3.1,3.1,0,0,0,.71-1.91c0-4.51,0-9-.06-13.54,0-1.28-.34-1.61-1.57-1.79l-.26,0c-1.2-.15-1.5-.67-1.06-1.81a.83.83,0,0,1,.86-.62c2.87,0,5.73,0,8.59,0,.69,0,.93.37,1,.94a9,9,0,0,1,0,1q0,8.25,0,16.52c0,.26,0,.53,0,.78.06.92.22,1.08,1.15,1.29l.38.07c1.05.17,1.19.36,1,1.41-.11.74-.34,1-1.09,1-2.6,0-5.2,0-7.81,0a.93.93,0,0,1-1.05-.88C-287.21,490.94-287.07,490.66-287.32,490.47Z" transform="translate(401.33 -420.66)"/><path class="cls-2" d="M-184.12,497.85a18.59,18.59,0,0,0,2.21-4.79,1.67,1.67,0,0,0-.11-1.14l-6.18-18.48c-.11-.33-.27-.64-.39-1a1.48,1.48,0,0,0-1.45-1.07c-1.07-.07-1.07-.13-1-1.16s.22-1.24,1.21-1.24h9.76c.86,0,1.13.24,1.22,1a1.1,1.1,0,0,1-1,1.35c-.68.11-.71.39-.55,1,.73,2.66,1.67,5.25,2.54,8a3.12,3.12,0,0,0,.33-.55c.69-2.28,1.47-4.53,2-6.86.29-1.29.28-1.3-1-1.48-1-.15-1-.18-1-1.22s.26-1.18,1.14-1.19c1.47,0,3,0,4.42,0,.75,0,1,.27,1,1s-.16,1.29-.85,1.34c-1.31.1-1.74,1-2.07,2-1.31,4.18-2.59,8.36-3.93,12.52a106.13,106.13,0,0,1-4.14,11.35,24.17,24.17,0,0,1-1.43,2.77,4.55,4.55,0,0,1-4.68,2.4,4.7,4.7,0,0,1-3.43-4,6.67,6.67,0,0,1,.47-3.94,3.5,3.5,0,0,1,3.41-2.36c1.47.08,2.52,1,3.1,2.73A15.75,15.75,0,0,1-184.12,497.85Z" transform="translate(401.33 -420.66)"/><path class="cls-2" d="M-242.48,483.77c1.06.39,1,1.18.91,1.9a9.12,9.12,0,0,1-6.94,6.66,9.51,9.51,0,0,1-10.26-5.23,14.45,14.45,0,0,1-1.4-7.71,13.06,13.06,0,0,1,1.73-6.06,9.49,9.49,0,0,1,15.88-.93,6.54,6.54,0,0,1,.88,6.07,3.31,3.31,0,0,1-5.64,1.31c-1.61-1.56-1.77-3.49-1.41-5.55a13.72,13.72,0,0,1,.47-1.75c.17-.54.24-1.05-.33-1.37a1.51,1.51,0,0,0-1.61.07,3,3,0,0,0-1,1.34,10.22,10.22,0,0,0-.87,3.38,26.07,26.07,0,0,0,.35,9.44c.13.5.3,1,.47,1.48a3.68,3.68,0,0,0,6.05,1.52,8.53,8.53,0,0,0,2.25-3.3C-242.78,484.64-242.65,484.23-242.48,483.77Z" transform="translate(401.33 -420.66)"/><path class="cls-2" d="M-167.83,479.69c0-2.13,0-4.26,0-6.38,0-.93,0-.92-.91-1-.44,0-1,.21-1.26-.38a4,4,0,0,1-.13-2.17c0-.12.24-.24.39-.31,3.37-1.64,5.38-4.53,7.12-7.69a6.56,6.56,0,0,0,.53-1.18c.19-.53.57-.57,1-.55s.65.41.72.79a5,5,0,0,1,0,1c0,2.09,0,4.17,0,6.25,0,.69.21.93.89.89.86,0,1.73,0,2.6,0a.78.78,0,0,1,.91.7,4.18,4.18,0,0,1-.45,2.38c-.11.31-.42.25-.67.26-.83,0-1.65,0-2.48,0-.51,0-.8.1-.8.72,0,4.46.05,8.93.09,13.4a3.58,3.58,0,0,0,.41,1.75,1.7,1.7,0,0,0,1.54,1,1.66,1.66,0,0,0,1.57-1,5.17,5.17,0,0,0,.59-2.11,2.35,2.35,0,0,1,.15-1c.13-.27.19-.63.59-.58s.42.39.51.67a2,2,0,0,1,0,.65,9.21,9.21,0,0,1-1.16,4.35,3.42,3.42,0,0,1-1.66,1.59,7.74,7.74,0,0,1-7.24-.37,6.32,6.32,0,0,1-2.93-5.63c-.05-2,0-4.08,0-6.11Z" transform="translate(401.33 -420.66)"/><path class="cls-2" d="M-265.2,479.35c0,2.91,0,5.81,0,8.72,0,1.32.14,1.51,1.48,1.59.74,0,.84.35.82,1,0,1-.23,1.34-.93,1.41h-10c-.43,0-.88.06-1.07-.49a2.47,2.47,0,0,1-.06-1.65c.09-.29.44-.18.69-.21,1.41-.2,1.47-.24,1.48-1.58q0-7.41,0-14.83c0-.26,0-.52,0-.78a.9.9,0,0,0-.92-1l-.26,0c-1.21-.19-1.37-.42-1.17-1.57a.92.92,0,0,1,1.05-.89c2.6,0,5.2,0,7.8,0,.75,0,1,.24,1.08,1,0,.3,0,.61,0,.91v8.45Z" transform="translate(401.33 -420.66)"/><path class="cls-2" d="M-272.83,462.15a5.48,5.48,0,0,1,1.09-3.46,3.27,3.27,0,0,1,5.42-.05,6.48,6.48,0,0,1-.11,7.42,3.22,3.22,0,0,1-5.25-.06A5.93,5.93,0,0,1-272.83,462.15Z" transform="translate(401.33 -420.66)"/><path class="cls-3" d="M-304.79,498.55c-3.53-.56-5.51-3-7.14-5.89-.25-.45-.17-.67.27-.91a13.7,13.7,0,0,0,6.18-7.61,22.7,22.7,0,0,0,.82-13.05,16.58,16.58,0,0,0-4.57-8.6,9,9,0,0,0-8-2.53,10.34,10.34,0,0,0-7.12,4.79c-2.43,3.48-3.24,7.42-3.25,11.8a32.83,32.83,0,0,0,.39,4.44c.91,4.74,3.07,8.63,7.48,11a4.74,4.74,0,0,1,1.26,1.1,26.26,26.26,0,0,0,7,5.8,16,16,0,0,0,6,2c.86.09,1.11-.09,1.21-.92,0-.25,0-.52,0-.78S-304.4,498.61-304.79,498.55Zm-8.86-15.14a5.73,5.73,0,0,1-1.39,2.17,1.4,1.4,0,0,1-2.26-.09,6,6,0,0,1-1.32-2.37,20.52,20.52,0,0,1,.29-13.51,6.18,6.18,0,0,1,1.23-2.12c1-1,1.86-1,2.71.1a10.35,10.35,0,0,1,1.73,4.44,18,18,0,0,1,.33,3.85A18.86,18.86,0,0,1-313.65,483.41Z" transform="translate(401.33 -420.66)"/><path class="cls-4" d="M-323,478.19v-3.31h.13v3.32Z" transform="translate(401.33 -420.66)"/><path class="cls-2" d="M-215.38,489.68a2.09,2.09,0,0,1-2-1.37c-.23-.47-.51-.91-.73-1.38q-2.28-4.68-4.55-9.35c-1.09-2.27-1.07-2.26.59-4.23a4.57,4.57,0,0,1,3.33-2c.59,0,.89-.56.87-1.22s-.37-1.1-1.11-1.11c-1.74,0-3.47,0-5.21,0-.85,0-1.08.32-1.11,1.37,0,.87,0,.89.92,1a1.75,1.75,0,0,1,1.06.28c-1.78,2.82-3.83,5.36-5.81,8.05a1.46,1.46,0,0,1-.19-1.09q0-9.57,0-19.14a7.46,7.46,0,0,0,0-1.16c-.1-.57-.39-1-1.07-.87a6.89,6.89,0,0,1-.91,0h-7.29c-.87,0-1.05.19-1.13,1,0,.22,0,.44,0,.65,0,.41.11.67.57.67.26,0,.52,0,.78.06,1.34.15,1.55.35,1.55,1.72q0,13.15,0,26.29c0,1.49-.09,1.54-1.61,1.77-.25,0-.52,0-.64.3a1.41,1.41,0,0,0,1.31,2q4.62,0,9.24,0c.43,0,.89.11,1.13-.42.11-.25.28-.1.35,0,.27.5.73.38,1.15.38h7.16c1,0,2.08,0,3.12,0a.86.86,0,0,0,1-.8c0-.26,0-.52,0-.78C-214.63,489.94-214.78,489.66-215.38,489.68Zm-11.17,0-.26,0c-2.38.16-2.51.05-2.52-2.28V483c0-.06.07-.13.24-.46,1.08,2.23,2.09,4.28,3.06,6.35C-225.74,489.51-225.83,489.6-226.55,489.68Z" transform="translate(401.33 -420.66)"/><path class="cls-2" d="M-193.3,476.26a12.87,12.87,0,0,0-2.34-5.16c-1.77-2.37-6.08-3.75-9.19-1.13V459.4a7.19,7.19,0,0,0,0-1,.92.92,0,0,0-1-.89c-2.78,0-5.56,0-8.33,0-.82,0-1,.27-1,1.29s0,1,.92,1.1c.35,0,.69.07,1,.13a1,1,0,0,1,.91,1.06c0,.26,0,.52,0,.78q0,11.26,0,22.52c0,2.17,0,4.34-.06,6.51,0,.48,0,1.07.52,1.21s.65-.54.86-.92a15,15,0,0,1,1.58-2.89,32,32,0,0,0,2.2,2.49,5.23,5.23,0,0,0,2.68,1.51,8.87,8.87,0,0,0,8.27-2.36,10.74,10.74,0,0,0,2.93-5.28A18.67,18.67,0,0,0-193.3,476.26Zm-7.61,10.1a7.43,7.43,0,0,1-.61,2.78,1.38,1.38,0,0,1-1.25,1,1.46,1.46,0,0,1-1.39-1,8.41,8.41,0,0,1-.6-3.05c-.16-3.86-.11-7.72,0-11.59a5.93,5.93,0,0,1,.38-2,1.5,1.5,0,0,1,1.47-1.08,1.5,1.5,0,0,1,1.51,1,5.36,5.36,0,0,1,.47,1.88c.11,2.12.17,4.25.26,6.35C-200.89,482.54-200.85,484.45-200.91,486.36Z" transform="translate(401.33 -420.66)"/><path class="cls-2" d="M-135.2,483.36c-.34,0-.33.33-.41.56a10.58,10.58,0,0,1-1.69,3.35,3.68,3.68,0,0,1-2.52,1.45,3.62,3.62,0,0,1-4.13-2.42,14.83,14.83,0,0,1-1.1-5.18c0-.64.11-.85.76-.84,1.47,0,2.95,0,4.42,0h4.16c1.12,0,1.41-.26,1.36-1.37a13.81,13.81,0,0,0-1.43-5.88,7.85,7.85,0,0,0-9.39-4.21,9.67,9.67,0,0,0-6.51,5.89,15.51,15.51,0,0,0-.92,8.55A11.72,11.72,0,0,0-151,488a9,9,0,0,0,8.16,4.46c3.47-.06,5.82-2,7.41-4.92a14.13,14.13,0,0,0,.95-2.27,2.46,2.46,0,0,0-.08-1.4A.7.7,0,0,0-135.2,483.36ZM-145,476a17.79,17.79,0,0,1,.31-3.09c.06-.25.11-.5.18-.75.17-.62.45-1.13,1.19-1.18a1.47,1.47,0,0,1,1.56,1.1,8.2,8.2,0,0,1,.44,2.4c0,.43,0,.87,0,1.3,0,2,0,2-2,2C-145.09,477.76-145.09,477.76-145,476Z" transform="translate(401.33 -420.66)"/><path class="cls-2" d="M-116.94,479.55c-.16-.23-.44-.42-.38-.76,1-.11,1.09-.22,1.1-1.28,0-2.69,0-5.38,0-8.07a2,2,0,0,0-.19-1c-.22-.39-.61-.43-.78,0s-.26,1-.42,1.49c-.24.74-.47.82-1.12.45-.38-.22-.74-.46-1.1-.7a6.63,6.63,0,0,0-9.9,3.41c-1.17,3.52-.71,7.3,2.8,9.89,1.28,1,2.58,1.9,3.86,2.86a4,4,0,0,1,1.26,1.3,1.84,1.84,0,0,1,0,2,1.86,1.86,0,0,1-1.81.78,4,4,0,0,1-2.64-1.25,9.83,9.83,0,0,1-1.78-2.85,32.26,32.26,0,0,1-1.24-3.83c-.1-.35,0-.87-.61-.82s-.57.56-.66,1a1.7,1.7,0,0,0,0,.39q0,4.42,0,8.85a2.53,2.53,0,0,0,.17,1,.63.63,0,0,0,.71.43c.35,0,.35-.33.37-.59a6,6,0,0,1,.39-1.77c.17-.48.44-.57.88-.26.71.5,1.43,1,2.17,1.43a7,7,0,0,0,10-3.6A9,9,0,0,0-116.94,479.55Zm-2.09-2.09q-2-1.44-4-2.93a7.09,7.09,0,0,1-1.24-1.14,1.34,1.34,0,0,1,.79-2.29,3.06,3.06,0,0,1,3.09.91,10,10,0,0,1,2.08,3.42,13.54,13.54,0,0,1,.93,3.32l0,0,0,0v0C-118,478.51-118.45,477.87-119,477.46Z" transform="translate(401.33 -420.66)"/></svg>