<svg width="100" height="79" viewBox="0 0 100 79" fill="none" xmlns="http://www.w3.org/2000/svg">
<path d="M39.1501 61.69C36.851 63.0057 34.3455 63.922 31.7401 64.4C25.8138 65.4755 19.7026 64.1634 14.7401 60.75C9.6956 57.2873 5.85172 52.3427 3.74009 46.6C1.76831 41.7159 0.838733 36.4736 1.01094 31.2093C1.18314 25.945 2.45333 20.7748 4.74009 16.03C7.20926 10.313 11.5747 5.62255 17.1001 2.74999C25.9501 -1.7 34.4001 -0.680008 42.2101 5.30999C46.5513 8.69492 49.8394 13.2455 51.6901 18.43C53.6025 23.286 54.5004 28.4822 54.3284 33.6985C54.1564 38.9147 52.9182 44.0405 50.6901 48.76C49.6484 51.004 48.3024 53.0936 46.6901 54.97C46.0401 54.36 45.3701 53.77 44.7501 53.14C43.5401 51.89 42.3801 50.61 41.1701 49.37C41.0835 49.31 41.0112 49.2318 40.9581 49.1408C40.9051 49.0498 40.8726 48.9482 40.8631 48.8433C40.8536 48.7385 40.8672 48.6328 40.9029 48.5337C40.9387 48.4346 40.9957 48.3446 41.0701 48.27C44.275 43.6211 45.8696 38.0506 45.6101 32.41C45.6266 26.4042 43.4667 20.5958 39.5301 16.06C36.3001 12.42 32.3001 10.25 27.3501 10.28C23.3059 10.3336 19.4448 11.975 16.6001 14.85C13.0819 18.2563 10.7389 22.6937 9.91008 27.52C8.5351 33.921 9.51507 40.6033 12.6701 46.34C14.071 49.002 16.0784 51.2971 18.5301 53.04C23.6001 56.55 28.9301 57.04 34.5301 54.26C34.9401 54.14 35.0701 54.47 35.2201 54.7C36.4501 56.64 37.6501 58.6 38.8901 60.52C39.0264 60.6785 39.1214 60.8683 39.1668 61.0724C39.2121 61.2765 39.2064 61.4886 39.1501 61.69V61.69Z" fill="#179F49"/>
<path d="M39.1501 61.69C38.2001 59.89 37.0101 58.24 35.9501 56.51C35.4801 55.74 34.9501 54.98 34.4901 54.22C33.8044 52.4436 32.9715 50.7277 32.0001 49.09C30.9001 46.83 29.4001 44.79 28.0901 42.6C28.7001 42.4 28.9501 42.92 29.2701 43.2C31.9499 45.6714 34.481 48.2993 36.8501 51.07C40.0701 54.67 42.9001 58.55 45.7701 62.42L46.7701 63.72C47.6328 62.6663 48.3276 61.4857 48.8301 60.22C50.2801 57.22 51.9501 54.33 53.6501 51.46C56.425 46.8517 59.6509 42.5305 63.2801 38.56C66.3234 35.1196 69.6702 31.9602 73.2801 29.12C76.562 26.4921 80.1355 24.2507 83.9301 22.44C88.1411 20.5078 92.5848 19.1297 97.1501 18.34C97.8701 18.21 98.5701 17.68 99.4301 18.13C98.5901 18.69 97.8301 19.26 97.0201 19.71C95.2001 20.71 93.4801 21.89 91.6501 22.88C88.2171 24.6453 84.9963 26.7958 82.0501 29.29C80.9201 30.29 79.7001 31.21 78.5301 32.17C75.1021 35.0361 71.9667 38.2351 69.1701 41.72C67.2414 44.0659 65.5057 46.5641 63.9801 49.19C62.8201 51.19 61.7701 53.32 60.7101 55.41C57.0601 62.6 54.2201 70.15 50.8901 77.49C50.7301 77.975 50.5047 78.4359 50.2201 78.86C49.7601 78.6 49.6001 78.12 49.3501 77.73L39.9601 62.89C39.7101 62.46 39.4201 62.08 39.1501 61.69Z" fill="#ED1D24"/>
</svg>
