<svg width="104" height="37" viewBox="0 0 104 37" fill="none" xmlns="http://www.w3.org/2000/svg">
<rect y="0.5" width="103.504" height="36" rx="4" fill="#EF613B"/>
<path d="M33.75 21C32.6328 21 31.6328 21.4883 30.9453 22.2617L27.2148 19.9297C27.5898 19.0156 27.5938 17.9844 27.2148 17.0703L30.9453 14.7383C31.6328 15.5117 32.6328 16 33.75 16C35.8203 16 37.5 14.3203 37.5 12.25C37.5 10.1797 35.8203 8.5 33.75 8.5C31.6797 8.5 30 10.1797 30 12.25C30 12.7578 30.1016 13.2383 30.2812 13.6797L26.5508 16.0117C25.8672 15.2383 24.8672 14.75 23.75 14.75C21.6797 14.75 20 16.4297 20 18.5C20 20.5703 21.6797 22.25 23.75 22.25C24.8672 22.25 25.8672 21.7617 26.5547 20.9883L30.2852 23.3203C30.1016 23.7617 30.0039 24.2422 30.0039 24.75C30.0039 26.8203 31.6836 28.5 33.7539 28.5C35.8242 28.5 37.5039 26.8203 37.5039 24.75C37.5 22.6797 35.8203 21 33.75 21ZM33.75 9.75C35.1289 9.75 36.25 10.8711 36.25 12.25C36.25 13.6289 35.1289 14.75 33.75 14.75C32.3711 14.75 31.25 13.6289 31.25 12.25C31.25 10.8711 32.3711 9.75 33.75 9.75ZM23.75 21C22.3711 21 21.25 19.8789 21.25 18.5C21.25 17.1211 22.3711 16 23.75 16C25.1289 16 26.25 17.1211 26.25 18.5C26.25 19.8789 25.1289 21 23.75 21ZM33.75 27.25C32.3711 27.25 31.25 26.1289 31.25 24.75C31.25 23.3711 32.3711 22.25 33.75 22.25C35.1289 22.25 36.25 23.3711 36.25 24.75C36.25 26.1289 35.1289 27.25 33.75 27.25Z" fill="white"/>
<path d="M52.1314 20.9365C52.1314 20.7314 52.0995 20.5492 52.0357 20.3896C51.9765 20.2301 51.8694 20.0843 51.7144 19.9521C51.5595 19.82 51.3407 19.6924 51.0582 19.5693C50.7802 19.4417 50.4247 19.3118 49.9918 19.1797C49.5178 19.0339 49.0803 18.8721 48.6793 18.6943C48.2828 18.512 47.9364 18.3024 47.6402 18.0654C47.344 17.8239 47.1138 17.5482 46.9498 17.2383C46.7857 16.9238 46.7037 16.5615 46.7037 16.1514C46.7037 15.7458 46.788 15.3766 46.9566 15.0439C47.1298 14.7113 47.3736 14.4242 47.688 14.1826C48.0071 13.9365 48.383 13.7474 48.816 13.6152C49.2489 13.4785 49.7274 13.4102 50.2515 13.4102C50.9898 13.4102 51.6255 13.5469 52.1588 13.8203C52.6965 14.0938 53.1089 14.4606 53.3961 14.9209C53.6877 15.3812 53.8336 15.8893 53.8336 16.4453H52.1314C52.1314 16.1172 52.0608 15.8278 51.9195 15.5771C51.7828 15.3219 51.5731 15.1214 51.2906 14.9756C51.0126 14.8298 50.6594 14.7568 50.231 14.7568C49.8254 14.7568 49.4882 14.8184 49.2193 14.9414C48.9504 15.0645 48.7499 15.2308 48.6177 15.4404C48.4856 15.6501 48.4195 15.887 48.4195 16.1514C48.4195 16.3382 48.4628 16.5091 48.5494 16.6641C48.636 16.8145 48.7681 16.9557 48.9459 17.0879C49.1236 17.2155 49.3469 17.3363 49.6158 17.4502C49.8847 17.5641 50.2014 17.6735 50.566 17.7783C51.1174 17.9424 51.5982 18.1247 52.0084 18.3252C52.4185 18.5212 52.7603 18.7445 53.0338 18.9951C53.3072 19.2458 53.5123 19.5306 53.649 19.8496C53.7857 20.1641 53.8541 20.5218 53.8541 20.9229C53.8541 21.3421 53.7698 21.7204 53.6011 22.0576C53.4325 22.3903 53.191 22.6751 52.8765 22.9121C52.5666 23.1445 52.1929 23.3245 51.7554 23.4521C51.3225 23.5752 50.8394 23.6367 50.3062 23.6367C49.8277 23.6367 49.356 23.5729 48.8912 23.4453C48.4309 23.3177 48.0116 23.124 47.6334 22.8643C47.2551 22.5999 46.9543 22.2718 46.731 21.8799C46.5077 21.4834 46.3961 21.0208 46.3961 20.4922H48.1119C48.1119 20.8158 48.1666 21.0915 48.2759 21.3193C48.3899 21.5472 48.5471 21.734 48.7476 21.8799C48.9481 22.0212 49.1806 22.126 49.4449 22.1943C49.7138 22.2627 50.0009 22.2969 50.3062 22.2969C50.7073 22.2969 51.0422 22.2399 51.3111 22.126C51.5845 22.012 51.7896 21.8525 51.9263 21.6475C52.063 21.4424 52.1314 21.2054 52.1314 20.9365ZM57.1145 13V23.5H55.4739V13H57.1145ZM56.8274 19.5283L56.2942 19.5215C56.2988 19.0111 56.3694 18.5394 56.5061 18.1064C56.6474 17.6735 56.8434 17.2975 57.094 16.9785C57.3492 16.6549 57.6546 16.4066 58.01 16.2334C58.3655 16.0557 58.7597 15.9668 59.1927 15.9668C59.5572 15.9668 59.8854 16.0169 60.177 16.1172C60.4733 16.2174 60.7285 16.3792 60.9427 16.6025C61.1568 16.8213 61.3186 17.1084 61.428 17.4639C61.5419 17.8148 61.5989 18.2432 61.5989 18.749V23.5H59.9446V18.7354C59.9446 18.3799 59.8922 18.0973 59.7874 17.8877C59.6871 17.6781 59.539 17.5277 59.343 17.4365C59.1471 17.3408 58.9078 17.293 58.6253 17.293C58.329 17.293 58.067 17.3522 57.8391 17.4707C57.6158 17.5892 57.429 17.751 57.2786 17.9561C57.1282 18.1611 57.0143 18.3981 56.9368 18.667C56.8639 18.9359 56.8274 19.223 56.8274 19.5283ZM67.7168 22.0166V18.4893C67.7168 18.2249 67.6689 17.9971 67.5732 17.8057C67.4775 17.6143 67.3317 17.4661 67.1357 17.3613C66.9443 17.2565 66.7028 17.2041 66.4111 17.2041C66.1423 17.2041 65.9098 17.2497 65.7139 17.3408C65.5179 17.432 65.3652 17.555 65.2559 17.71C65.1465 17.8649 65.0918 18.0404 65.0918 18.2363H63.4512C63.4512 17.9447 63.5218 17.6621 63.6631 17.3887C63.8044 17.1152 64.0094 16.8714 64.2783 16.6572C64.5472 16.443 64.8685 16.2744 65.2422 16.1514C65.6159 16.0283 66.0352 15.9668 66.5 15.9668C67.056 15.9668 67.5482 16.0602 67.9766 16.2471C68.4095 16.4339 68.749 16.7165 68.9951 17.0947C69.2458 17.4684 69.3711 17.9378 69.3711 18.5029V21.791C69.3711 22.1283 69.3939 22.4313 69.4395 22.7002C69.4896 22.9645 69.5602 23.1947 69.6514 23.3906V23.5H67.9629C67.8854 23.3223 67.8239 23.0967 67.7783 22.8232C67.7373 22.5452 67.7168 22.2764 67.7168 22.0166ZM67.9561 19.002L67.9697 20.0205H66.7871C66.4818 20.0205 66.2129 20.0501 65.9805 20.1094C65.748 20.1641 65.5544 20.2461 65.3994 20.3555C65.2445 20.4648 65.1283 20.597 65.0508 20.752C64.9733 20.9069 64.9346 21.0824 64.9346 21.2783C64.9346 21.4743 64.9801 21.6543 65.0713 21.8184C65.1624 21.9779 65.2946 22.1032 65.4678 22.1943C65.6455 22.2855 65.8597 22.3311 66.1104 22.3311C66.4476 22.3311 66.7415 22.2627 66.9922 22.126C67.2474 21.9847 67.4479 21.8138 67.5938 21.6133C67.7396 21.4082 67.8171 21.2145 67.8262 21.0322L68.3594 21.7637C68.3047 21.9505 68.2113 22.151 68.0791 22.3652C67.9469 22.5794 67.7738 22.7845 67.5596 22.9805C67.3499 23.1719 67.097 23.3291 66.8008 23.4521C66.5091 23.5752 66.1719 23.6367 65.7891 23.6367C65.306 23.6367 64.8753 23.541 64.4971 23.3496C64.1188 23.1536 63.8226 22.8916 63.6084 22.5635C63.3942 22.2308 63.2871 21.8548 63.2871 21.4355C63.2871 21.0436 63.36 20.6973 63.5059 20.3965C63.6562 20.0911 63.875 19.8359 64.1621 19.6309C64.4538 19.4258 64.8092 19.2708 65.2285 19.166C65.6478 19.0566 66.1263 19.002 66.6641 19.002H67.9561ZM73.028 17.5117V23.5H71.3806V16.1035H72.9529L73.028 17.5117ZM75.2907 16.0557L75.2771 17.5869C75.1768 17.5687 75.0674 17.555 74.9489 17.5459C74.835 17.5368 74.7211 17.5322 74.6071 17.5322C74.3246 17.5322 74.0762 17.5732 73.862 17.6553C73.6478 17.7327 73.4678 17.8467 73.322 17.9971C73.1807 18.1429 73.0713 18.3206 72.9939 18.5303C72.9164 18.7399 72.8708 18.9746 72.8571 19.2344L72.4812 19.2617C72.4812 18.7969 72.5267 18.3662 72.6179 17.9697C72.709 17.5732 72.8458 17.2246 73.028 16.9238C73.2149 16.623 73.4473 16.3883 73.7253 16.2197C74.0079 16.0511 74.3337 15.9668 74.7029 15.9668C74.8031 15.9668 74.9102 15.9759 75.0241 15.9941C75.1426 16.0124 75.2315 16.0329 75.2907 16.0557ZM79.727 23.6367C79.1801 23.6367 78.6857 23.5479 78.2436 23.3701C77.8061 23.1878 77.4324 22.9349 77.1225 22.6113C76.8172 22.2878 76.5825 21.9072 76.4184 21.4697C76.2543 21.0322 76.1723 20.5605 76.1723 20.0547V19.7812C76.1723 19.2025 76.2566 18.6784 76.4252 18.209C76.5939 17.7396 76.8286 17.3385 77.1293 17.0059C77.4301 16.6686 77.7856 16.4111 78.1957 16.2334C78.6059 16.0557 79.0502 15.9668 79.5288 15.9668C80.0574 15.9668 80.52 16.0557 80.9164 16.2334C81.3129 16.4111 81.6411 16.6618 81.9008 16.9854C82.1651 17.3044 82.3611 17.6849 82.4887 18.127C82.6209 18.569 82.687 19.0566 82.687 19.5898V20.2939H76.9721V19.1113H81.06V18.9814C81.0509 18.6852 80.9916 18.4072 80.8823 18.1475C80.7774 17.8877 80.6157 17.6781 80.3969 17.5186C80.1782 17.359 79.8865 17.2793 79.5219 17.2793C79.2485 17.2793 79.0047 17.3385 78.7905 17.457C78.5808 17.571 78.4054 17.7373 78.2641 17.9561C78.1228 18.1748 78.0135 18.4391 77.936 18.749C77.8631 19.0544 77.8266 19.3984 77.8266 19.7812V20.0547C77.8266 20.3783 77.8699 20.679 77.9565 20.957C78.0476 21.2305 78.1798 21.4697 78.353 21.6748C78.5261 21.8799 78.7358 22.0417 78.9819 22.1602C79.228 22.2741 79.5082 22.3311 79.8227 22.3311C80.2192 22.3311 80.5724 22.2513 80.8823 22.0918C81.1922 21.9323 81.461 21.7067 81.6889 21.415L82.5571 22.2559C82.3976 22.4883 82.1902 22.7116 81.935 22.9258C81.6798 23.1354 81.3676 23.3063 80.9985 23.4385C80.6339 23.5706 80.2101 23.6367 79.727 23.6367Z" fill="white"/>
</svg>
