<svg width="100" height="100" viewBox="0 0 100 100" fill="none" xmlns="http://www.w3.org/2000/svg">
<path d="M70.3718 32.6398L70.3719 32.6398C70.8987 32.1171 71.7495 32.1205 72.2721 32.6474L72.982 31.9432L72.2721 32.6474L76.6737 37.0845C77.1962 37.6114 77.1929 38.4622 76.6663 38.985C76.6662 38.985 76.6662 38.9851 76.6661 38.9851L42.9575 72.4232L42.9574 72.4233C42.4306 72.946 41.5798 72.9425 41.0572 72.4157L40.3473 73.1199L41.0572 72.4157L23.3266 54.5415C22.8038 54.0144 22.8073 53.1636 23.3341 52.641L22.6299 51.9311L23.3341 52.641L27.7714 48.2395C28.2982 47.7169 29.1491 47.7203 29.6717 48.2472L30.3816 47.543L29.6717 48.2472L41.3498 60.0201L42.0541 60.73L42.764 60.0258L70.3718 32.6398ZM2.5625 50C2.5625 23.8009 23.8009 2.5625 50 2.5625C76.1991 2.5625 97.4375 23.8009 97.4375 50C97.4375 76.1991 76.1991 97.4375 50 97.4375C23.8009 97.4375 2.5625 76.1991 2.5625 50ZM90.0625 50C90.0625 27.8561 72.1405 9.9375 50 9.9375C27.8561 9.9375 9.9375 27.8595 9.9375 50C9.9375 72.1439 27.8595 90.0625 50 90.0625C72.1439 90.0625 90.0625 72.1405 90.0625 50Z" fill="#EF613B" stroke="white" stroke-width="2"/>
</svg>
