<svg width="58" height="37" viewBox="0 0 58 37" fill="none" xmlns="http://www.w3.org/2000/svg">
<rect y="0.5" width="57.5039" height="36" rx="4" fill="#EF613B"/>
<path d="M33.75 21C32.6328 21 31.6328 21.4883 30.9453 22.2617L27.2148 19.9297C27.5898 19.0156 27.5938 17.9844 27.2148 17.0703L30.9453 14.7383C31.6328 15.5117 32.6328 16 33.75 16C35.8203 16 37.5 14.3203 37.5 12.25C37.5 10.1797 35.8203 8.5 33.75 8.5C31.6797 8.5 30 10.1797 30 12.25C30 12.7578 30.1016 13.2383 30.2812 13.6797L26.5508 16.0117C25.8672 15.2383 24.8672 14.75 23.75 14.75C21.6797 14.75 20 16.4297 20 18.5C20 20.5703 21.6797 22.25 23.75 22.25C24.8672 22.25 25.8672 21.7617 26.5547 20.9883L30.2852 23.3203C30.1016 23.7617 30.0039 24.2422 30.0039 24.75C30.0039 26.8203 31.6836 28.5 33.7539 28.5C35.8242 28.5 37.5039 26.8203 37.5039 24.75C37.5 22.6797 35.8203 21 33.75 21ZM33.75 9.75C35.1289 9.75 36.25 10.8711 36.25 12.25C36.25 13.6289 35.1289 14.75 33.75 14.75C32.3711 14.75 31.25 13.6289 31.25 12.25C31.25 10.8711 32.3711 9.75 33.75 9.75ZM23.75 21C22.3711 21 21.25 19.8789 21.25 18.5C21.25 17.1211 22.3711 16 23.75 16C25.1289 16 26.25 17.1211 26.25 18.5C26.25 19.8789 25.1289 21 23.75 21ZM33.75 27.25C32.3711 27.25 31.25 26.1289 31.25 24.75C31.25 23.3711 32.3711 22.25 33.75 22.25C35.1289 22.25 36.25 23.3711 36.25 24.75C36.25 26.1289 35.1289 27.25 33.75 27.25Z" fill="white"/>
</svg>
