<svg width="26" height="26" viewBox="0 0 26 26" fill="none" xmlns="http://www.w3.org/2000/svg">
<path d="M15.1825 24.9768C15.4251 24.9303 15.6676 24.8838 15.8986 24.8256C16.0488 24.7907 16.1873 24.6861 16.2682 24.5583C16.3491 24.4186 16.3723 24.2559 16.3375 24.1047C16.2682 23.8372 16.0372 23.6512 15.76 23.6512C15.7138 23.6512 15.6676 23.6628 15.6214 23.6744C15.402 23.7326 15.1941 23.7791 14.9746 23.814C14.6512 23.8721 14.4433 24.1861 14.5011 24.5116C14.5242 24.6628 14.6166 24.8022 14.7436 24.8954C14.8476 24.9651 14.9631 25 15.0786 25C15.1132 24.9884 15.1478 24.9884 15.1825 24.9768ZM23.845 10.0814C23.9026 10.0814 23.972 10.0698 24.0297 10.0465C24.3416 9.94185 24.5148 9.60461 24.4109 9.29068C24.3301 9.05812 24.2492 8.82559 24.1568 8.59304C24.0644 8.36048 23.845 8.22094 23.6024 8.22094C23.5216 8.22094 23.4523 8.23258 23.383 8.26749C23.2329 8.32557 23.1173 8.44191 23.0596 8.58142C23.0018 8.72096 22.9903 8.89535 23.0596 9.03489C23.1404 9.24418 23.2213 9.45351 23.2906 9.6628C23.3252 9.77905 23.4061 9.88374 23.51 9.96517C23.6024 10.0466 23.7179 10.0814 23.845 10.0814ZM18.7169 23.6395C18.8208 23.6395 18.9247 23.6163 19.0171 23.5582C19.225 23.4303 19.4444 23.3023 19.6408 23.1744C19.7679 23.0814 19.8602 22.9535 19.8949 22.7907C19.9295 22.6396 19.8949 22.4767 19.8141 22.3372C19.6985 22.1744 19.5138 22.0697 19.3174 22.0697C19.2019 22.0697 19.0864 22.1047 18.9941 22.1744C18.8092 22.3023 18.6244 22.4186 18.4281 22.5232C18.1393 22.686 18.0469 23.0582 18.2086 23.3372C18.2549 23.4186 18.3126 23.4767 18.3819 23.5232C18.4742 23.5931 18.5897 23.6395 18.7169 23.6395ZM24.0759 13.8372C24.1683 13.907 24.2838 13.9419 24.3994 13.9419H24.4109C24.7343 13.9419 25 13.6745 25 13.3605C25 13.1163 25 12.8721 24.9884 12.6279C24.9769 12.3024 24.7112 12.0581 24.3994 12.0581H24.3763C24.0528 12.0697 23.7988 12.3488 23.8103 12.6744C23.8219 12.8953 23.8219 13.1163 23.8103 13.3372C23.8219 13.5349 23.9143 13.7209 24.0759 13.8372ZM22.4936 19.5116C22.3897 19.4303 22.2626 19.3954 22.1356 19.3954C21.9508 19.3954 21.7775 19.4884 21.6621 19.6396C21.535 19.814 21.3964 19.9884 21.2463 20.1629C21.0384 20.4187 21.0614 20.7908 21.3156 21.0002C21.3271 21.0117 21.3386 21.0233 21.3618 21.035C21.4658 21.1048 21.5812 21.1397 21.7083 21.1397C21.8815 21.1397 22.0433 21.0583 22.1587 20.9304C22.3204 20.7443 22.4705 20.5467 22.6207 20.349C22.8055 20.093 22.7477 19.7094 22.4936 19.5116ZM24.0759 15.9419C24.0182 15.9187 23.9605 15.9187 23.9026 15.9187C23.6371 15.9187 23.4176 16.0814 23.3367 16.3372C23.2674 16.5465 23.1981 16.7558 23.1173 16.9651C23.0249 17.221 23.1058 17.5116 23.3252 17.6628C23.3598 17.686 23.406 17.7093 23.4522 17.7325C23.5215 17.7558 23.5908 17.7674 23.6601 17.7674C23.9026 17.7674 24.1221 17.6163 24.2145 17.3836C24.2954 17.1627 24.3762 16.9301 24.457 16.686C24.5611 16.3837 24.3878 16.0466 24.0759 15.9419ZM21.6505 5.30233C21.7082 5.30233 21.766 5.26751 21.789 5.2326C21.8121 5.1977 21.8236 5.13956 21.8005 5.08145L20.9344 1.94187L20.0219 3.26746L19.687 3.04652C17.7004 1.70937 15.402 1 13.0227 1C12.3297 1 11.6367 1.05817 10.9437 1.18603C10.6433 1.2442 10.3315 1.30234 10.0313 1.38371L9.99659 1.39536C7.32859 2.08141 5.04163 3.62791 3.39009 5.84887L3.36702 5.8837C3.36702 5.89534 3.35545 5.89534 3.35545 5.90696C3.29767 5.98839 3.23989 6.05811 3.19377 6.13951C3.10135 6.26741 3.02052 6.39536 2.93964 6.52326L2.91653 6.56975C1.55371 8.686 0.90687 11.1279 1.0108 13.6395C1.0108 13.6511 1.0108 13.6628 1.0108 13.6744C1.02231 13.9069 1.04547 14.1511 1.06855 14.3953L1.08012 14.4419C1.10322 14.6977 1.1379 14.9419 1.18413 15.1744C1.61143 17.6628 2.77801 19.9185 4.54516 21.6744L4.55673 21.686C5.03026 22.1511 5.54998 22.593 6.09283 22.9767C7.53662 23.9999 9.15357 24.686 10.8745 24.9883C10.9092 24.9999 10.9438 24.9999 10.9785 24.9999C11.2672 24.9999 11.5098 24.7906 11.556 24.5116C11.579 24.3489 11.5444 24.1976 11.4635 24.0697C11.3712 23.9418 11.2326 23.8487 11.0824 23.8255C10.1584 23.6627 9.26907 23.372 8.42588 22.9766L8.4144 22.965C8.40283 22.965 8.40283 22.9534 8.39132 22.9534C8.19499 22.8604 7.99861 22.7674 7.82534 22.6627H7.81377L7.75599 22.6278C7.42106 22.4418 7.0977 22.2325 6.78588 22.0115C4.42964 20.3371 2.85887 17.8371 2.3622 14.9651C1.86556 12.0929 2.51234 9.20925 4.17559 6.83713C4.90325 5.79062 5.80405 4.8953 6.832 4.17431L6.86668 4.15114C8.69155 2.88363 10.8168 2.22087 13.0343 2.22087C15.171 2.22087 17.2385 2.84881 19.0172 4.04644L19.3637 4.279L18.4512 5.6162L21.6505 5.30233ZM19.3174 17.3954C19.4675 17.3954 19.6061 17.3139 19.6754 17.1745C19.7794 16.9768 19.6985 16.7326 19.5021 16.628L12.8032 13.1396V5.77912C12.8032 5.55821 12.6184 5.37214 12.3989 5.37214C12.1794 5.37214 11.9947 5.55818 11.9947 5.77912V13.6279L19.1325 17.3489C19.1903 17.3838 19.2481 17.3954 19.3174 17.3954Z" fill="#888F9D" stroke="#888F9D" stroke-width="0.5"/>
</svg>
