<svg width="19" height="23" viewBox="0 0 19 23" fill="none" xmlns="http://www.w3.org/2000/svg">
<path d="M17.0614 2.5H2.91856C1.85383 2.5 0.98999 3.36384 0.98999 4.42857V18.5714C0.98999 19.6362 1.85383 20.5 2.91856 20.5H17.0614C18.1262 20.5 18.99 19.6362 18.99 18.5714V4.42857C18.99 3.36384 18.1262 2.5 17.0614 2.5ZM17.7043 18.5714C17.7043 18.925 17.415 19.2143 17.0614 19.2143H2.91856C2.56499 19.2143 2.2757 18.925 2.2757 18.5714V4.42857C2.2757 4.075 2.56499 3.78571 2.91856 3.78571H17.0614C17.415 3.78571 17.7043 4.075 17.7043 4.42857V18.5714Z" fill="#EF613B"/>
<line x1="1.65" y1="22.35" x2="18.35" y2="22.35" stroke="#EF613B" stroke-width="1.3" stroke-linecap="round"/>
<line x1="1.65" y1="0.85" x2="18.35" y2="0.85" stroke="#EF613B" stroke-width="1.3" stroke-linecap="round"/>
</svg>
