<svg width="28" height="24" viewBox="0 0 28 24" fill="none" xmlns="http://www.w3.org/2000/svg">
<path d="M0 2.57143V21.4286C0 22.8488 1.15125 24 2.57143 24H24.8571C26.2773 24 27.4286 22.8488 27.4286 21.4286V2.57143C27.4286 1.15125 26.2773 0 24.8571 0H2.57143C1.15125 0 0 1.15125 0 2.57143ZM17.1429 1.71429V7.42859H10.2857V1.71429H17.1429ZM25.7143 14.8571H18.8571V9.14288H25.7143V14.8571ZM17.1429 14.8571H10.2857V9.14288H17.1429V14.8571ZM1.71429 9.14288H8.57143V14.8572H1.71429V9.14288ZM8.57143 1.71429V7.42859H1.71429V2.57143C1.71429 2.09802 2.09802 1.71429 2.57143 1.71429H8.57143ZM1.71429 21.4286V16.5714H8.57143V22.2857H2.57143C2.09802 22.2857 1.71429 21.902 1.71429 21.4286ZM10.2857 22.2857V16.5714H17.1429V22.2857H10.2857ZM18.8571 22.2857V16.5714H25.7143V21.4286C25.7143 21.902 25.3306 22.2857 24.8571 22.2857H18.8571ZM25.7143 7.42859H18.8571V1.71429H24.8571C25.3306 1.71429 25.7143 2.09802 25.7143 2.57143V7.42859Z" fill="#EF613B"/>
</svg>
