<svg width="25" height="24" viewBox="0 0 25 24" fill="none" xmlns="http://www.w3.org/2000/svg">
<path d="M12.4285 24C19.0575 24 24.4285 18.629 24.4285 12C24.4285 5.37097 19.0575 0 12.4285 0C5.79943 0 0.428467 5.37097 0.428467 12C0.428467 18.629 5.79943 24 12.4285 24ZM1.97685 12C1.97685 6.25645 6.62685 1.54839 12.4285 1.54839C18.172 1.54839 22.8801 6.19839 22.8801 12C22.8801 17.7435 18.2301 22.4516 12.4285 22.4516C6.68492 22.4516 1.97685 17.8016 1.97685 12ZM18.0269 11.129L9.51072 5.95161C8.74621 5.52581 7.78331 6.07258 7.78331 6.96774V17.0323C7.78331 17.9226 8.74137 18.4742 9.51072 18.0484L18.0269 13.1613C18.8204 12.721 18.8204 11.5742 18.0269 11.129ZM9.33169 15.8613V8.17258C9.33169 7.94516 9.57847 7.80484 9.77202 7.92581L16.2801 11.879C16.4688 11.9952 16.464 12.271 16.2752 12.3774L9.76718 16.1129C9.57363 16.2242 9.33169 16.0839 9.33169 15.8613Z" fill="#888F9D"/>
</svg>
