<svg width="16" height="16" viewBox="0 0 16 16" fill="none" xmlns="http://www.w3.org/2000/svg">
<path d="M13.6 16H2.4C1.76348 16 1.15303 15.7471 0.702944 15.2971C0.252856 14.847 0 14.2365 0 13.6V0.8C0 0.587827 0.0842854 0.384344 0.234315 0.234315C0.384344 0.0842854 0.587827 0 0.8 0H12C12.2122 0 12.4157 0.0842854 12.5657 0.234315C12.7157 0.384344 12.8 0.587827 12.8 0.8V10.4H16V13.6C16 14.2365 15.7471 14.847 15.2971 15.2971C14.847 15.7471 14.2365 16 13.6 16ZM12.8 12V13.6C12.8 13.8122 12.8843 14.0157 13.0343 14.1657C13.1843 14.3157 13.3878 14.4 13.6 14.4C13.8122 14.4 14.0157 14.3157 14.1657 14.1657C14.3157 14.0157 14.4 13.8122 14.4 13.6V12H12.8ZM11.2 14.4V1.6H1.6V13.6C1.6 13.8122 1.68429 14.0157 1.83431 14.1657C1.98434 14.3157 2.18783 14.4 2.4 14.4H11.2ZM3.2 4H9.6V5.6H3.2V4ZM3.2 7.2H9.6V8.8H3.2V7.2ZM3.2 10.4H7.2V12H3.2V10.4Z" fill="#172849"/>
</svg>
