<svg width="20" height="18" viewBox="0 0 20 18" fill="none" xmlns="http://www.w3.org/2000/svg">
<path d="M4.91304 1V8.6M4.91304 1L8.82609 4.82609M4.91304 1L1 4.82609M15.087 9.4V17L15.087 11.4M13.1304 13.8H17.0435L14.1602 13.8M8.82609 13C8.82609 10.7909 7.07416 9 4.91304 9C2.75193 9 1 10.7909 1 13C1 15.2091 2.75193 17 4.91304 17C7.07416 17 8.82609 15.2091 8.82609 13ZM19 5C19 7.20914 17.2481 9 15.087 9C12.9258 9 11.1739 7.20914 11.1739 5C11.1739 2.79086 12.9258 1 15.087 1C17.2481 1 19 2.79086 19 5Z" stroke="black" stroke-width="1.5" stroke-linecap="round" stroke-linejoin="round"/>
</svg>
