<svg width="16" height="16" viewBox="0 0 16 16" fill="none" xmlns="http://www.w3.org/2000/svg">
<path d="M4.8 3.80952V5.84051H7.2V3.80952H8.8V5.84051H11.2V3.80952H12.8V5.84051L13.6 5.84127C14.2122 5.84124 14.8012 6.06399 15.2466 6.46396C15.692 6.86393 15.9601 7.41088 15.996 7.99289L16 8.12698V8.88889C16 9.66146 15.6984 10.367 15.2008 10.9041L15.2 15.2381C15.2 15.4402 15.1157 15.634 14.9657 15.7768C14.8157 15.9197 14.6122 16 14.4 16H1.6C1.38783 16 1.18434 15.9197 1.03431 15.7768C0.884286 15.634 0.8 15.4402 0.8 15.2381V10.9003C0.370135 10.4339 0.0989913 9.85417 0.0224001 9.23784L0.00480004 9.04508L3.72836e-09 8.88889V8.12698C-3.40974e-05 7.54397 0.23386 6.98297 0.653827 6.55879C1.07379 6.1346 1.64809 5.87928 2.2592 5.84508L2.4 5.84127L3.2 5.84051V3.80952H4.8ZM5.6016 10.9011L5.5584 10.9491C5.034 11.4944 4.31907 11.8391 3.5472 11.919L3.3632 11.9327L3.2 11.9365C2.924 11.9365 2.656 11.903 2.4 11.8405V14.4762H13.6V11.8405C13.0763 11.9687 12.527 11.9687 12.0033 11.8404C11.4797 11.7121 10.9986 11.4598 10.6048 11.1068L10.4848 10.9925L10.4 10.9034L10.3144 10.9933C9.79564 11.512 9.10121 11.8396 8.3536 11.9182L8.16 11.9335L8 11.9365C7.16277 11.9377 6.3588 11.6245 5.7624 11.0649L5.6424 10.9453L5.6016 10.9011ZM13.6 7.36508H2.4C2.20405 7.3651 2.01493 7.43362 1.8685 7.55762C1.72207 7.68163 1.62853 7.85251 1.6056 8.03784L1.6 8.12698V8.86679L1.6024 8.97879C1.62648 9.36676 1.80529 9.7313 2.10227 9.99784C2.39924 10.2644 2.79193 10.4128 3.2 10.4127C3.58316 10.4133 3.95383 10.2829 4.24454 10.0452C4.53526 9.8075 4.72669 9.47827 4.784 9.11746L4.796 9.00089L4.8 8.86679C4.8288 7.91594 6.2616 7.88165 6.3912 8.7647L6.3992 8.86679L6.4024 8.97879C6.42478 9.3658 6.60116 9.73014 6.89565 9.99765C7.19014 10.2652 7.5806 10.4158 7.98756 10.4188C8.39451 10.4218 8.78738 10.277 9.0862 10.0139C9.38501 9.75073 9.56732 9.38904 9.596 9.00241L9.6056 8.78756C9.7048 7.90679 11.0952 7.90679 11.1944 8.78756L11.204 9.00241C11.2326 9.38695 11.4132 9.74687 11.7093 10.0096C12.0055 10.2724 12.3952 10.4185 12.8 10.4185C13.2048 10.4185 13.5945 10.2724 13.8907 10.0096C14.1868 9.74687 14.3674 9.38695 14.396 9.00241L14.4 8.88889V8.12698C14.4 7.94037 14.328 7.76025 14.1978 7.6208C14.0676 7.48134 13.8882 7.39225 13.6936 7.37041L13.6 7.36508ZM4 0C5.056 0.663619 5.3304 1.59086 5.1592 2.20038C5.07688 2.49318 4.8758 2.74284 4.60019 2.89444C4.32459 3.04604 3.99704 3.08717 3.6896 3.00876C3.38216 2.93036 3.12002 2.73885 2.96084 2.47637C2.80166 2.21389 2.75848 1.90194 2.8408 1.60914C3.08 0.763429 4 1.14286 4 0ZM8 0C9.056 0.663619 9.3304 1.59086 9.1592 2.20038C9.07688 2.49318 8.8758 2.74284 8.60019 2.89444C8.32459 3.04604 7.99704 3.08717 7.6896 3.00876C7.38216 2.93036 7.12002 2.73885 6.96084 2.47637C6.80166 2.21389 6.75848 1.90194 6.8408 1.60914C7.08 0.763429 8 1.14286 8 0ZM12 0C13.056 0.663619 13.3304 1.59086 13.1592 2.20038C13.0769 2.49318 12.8758 2.74284 12.6002 2.89444C12.3246 3.04604 11.997 3.08717 11.6896 3.00876C11.3822 2.93036 11.12 2.73885 10.9608 2.47637C10.8017 2.21389 10.7585 1.90194 10.8408 1.60914C11.08 0.763429 12 1.14286 12 0Z" fill="#172849"/>
</svg>
